# xmcd CD database file
#
# Track frame offsets:
#	150
#	10190
#	24458
#	33995
#	43730
#	54018
#	68260
#	83015
#	92598
#	100240
#	109385
#	121090
#	127083
#	138525
#	148948
#	156890
#	166595
#	174863
#	186625
#	199395
#	203973
#	215730
#	226548
#	232393
#	242913
#	253675
#	262330
#	274443
#	287643
#	297130
#	304630
#
# Disc length: 4197 seconds
#
# Revision: 5
# Processed by: cddbd v1.5PL3 Copyright (c) Steve Scherf et al.
# Submitted via: CDex 1.51
#
DISCID=cb10631f
DTITLE=Fats Waller - "Hallelujah!": The Definitive Fats Waller, Vol. 2
DYEAR=1935
DGENRE=Blues
TTITLE0=I'm Crazy 'bout My Baby
TTITLE1=Tea for Two
TTITLE2=Believe It, Beloved
TTITLE3=Sweet Sue, Just You
TTITLE4=Somebody Stole My Gal
TTITLE5=Honesuckle Rose
TTITLE6=Night Wind
TTITLE7=African Ripples
TTITLE8=Because of Once upon a Time
TTITLE9=Where were You on the Night of June the Third?
TTITLE10=Clothesline Ballet
TTITLE11=Don't let It Bother You
TTITLE12="E" Flat Blues
TTITLE13=Alligator Crawl
TTITLE14=Zonky
TTITLE15=Hallelujah (#1)
TTITLE16=Do Me a Favor
TTITLE17=California, Here I Come
TTITLE18=I've got a Feeling I'm Falling
TTITLE19=My Fate is in Your Hands
TTITLE20=Ain't Misbehavin'
TTITLE21=You're the Top
TTITLE22=Blue, turning Grey over You
TTITLE23=Russian Fantasy
TTITLE24=I'm Crazy 'bout My Baby (#2 - 1936)
TTITLE25=Truckin' (1936)
TTITLE26=You Can't have Your Cake and Eat It (1939)
TTITLE27=Not There, Right There (1939)
TTITLE28=George Jessel Show Theme  (Stompin at the Savoy) (radio 1939)
TTITLE29=Hallelujah (#2 -  Jessel Show - 1939)
TTITLE30=By the Light of the Silvery Moon (Jessel Show - 1939)
EXTD=YEAR: 1935
EXTT0=
EXTT1=
EXTT2=
EXTT3=
EXTT4=
EXTT5=
EXTT6=
EXTT7=
EXTT8=
EXTT9=
EXTT10=
EXTT11=
EXTT12=
EXTT13=
EXTT14=
EXTT15=
EXTT16=
EXTT17=
EXTT18=
EXTT19=
EXTT20=
EXTT21=
EXTT22=
EXTT23=
EXTT24=
EXTT25=
EXTT26=
EXTT27=
EXTT28=
EXTT29=
EXTT30=
PLAYORDER=
